<svg xmlns="http://www.w3.org/2000/svg" viewBox="0 0 198.01 176.3"><defs><style>.cls-1{fill:#6cc;}.cls-2{fill:#66c;}.cls-3{fill:#f66;}.cls-4{fill:#fc0;}</style></defs><title>Asset 3</title><g id="Layer_2" data-name="Layer 2"><g id="Logos"><path class="cls-1" d="M108,18A18,18,0,0,1,126,0H18a18,18,0,0,0,0,36H126A18,18,0,0,1,108,18Z"/><path class="cls-2" d="M114.59,149.3l-54-93.53h0a18,18,0,0,1-31.18,18l54,93.53a18,18,0,0,0,31.18-18Z"/><path class="cls-3" d="M189,2.41A18,18,0,0,0,164.41,9l-54,93.53h0a18,18,0,0,1,31.18,18l54-93.53A18,18,0,0,0,189,2.41Z"/><circle class="cls-4" cx="126" cy="18" r="18"/><circle class="cls-4" cx="45" cy="64.77" r="18" transform="translate(-20.76 108.3) rotate(-88.71)"/><circle class="cls-4" cx="126" cy="111.53" r="18" transform="translate(-24.57 36.41) rotate(-15)"/></g></g></svg>